#!OML:ASF E:\Steps\Project 1\Capture day 1\Session 2\Subject.ASF
:FULLY-SPECIFIED
:DEGREES
256
root 3.54698 17.1769 9.85208 -143.942 -4.71413 172.49
lowerback -17.5173 -4.57991 -2.06417
upperback 1.08571 -5.81891 0.92412
thorax 11.3503 -2.92098 0.596681
lowerneck -0.912018 -1.62501 -0.265014
upperneck 17.759 -1.09706 0.0461096
head 5.49774 -0.136672 0.043816
rclavicle -3.35946e-014 -8.74653e-015
rhumerus -39.5503 -8.59121 -80.3015
rradius 43.4942
rwrist -9.58035
rhand -4.03644 -53.323
rfingers 7.12502
rthumb 21.719 -82.1246
lclavicle -3.35946e-014 -8.74653e-015
lhumerus -28.8034 -13.6101 80.6128
lradius 47.4819
lwrist -0.0748443
lhand -21.196 -13.5709
lfingers 7.12502
lthumb 5.18515 16.3456
rfemur -48.6998 5.722 8.61948
rtibia 22.649
rfoot -18.6827 -6.49967
rtoes -15.2225
lfemur -48.0104 -7.83208 -19.9615
ltibia 73.6095
lfoot -7.88964 0.642887
ltoes -34.6158
257
root 3.55652 17.1755 9.84602 -144.085 -4.62427 172.635
lowerback -17.4251 -4.48993 -2.11521
upperback 1.07567 -5.68969 0.919732
thorax 11.2854 -2.86391 0.663637
lowerneck -0.747311 -1.61056 -0.252501
upperneck 17.6245 -1.09014 0.105754
head 5.42801 -0.129382 0.0612996
rclavicle 8.54774e-015 -5.1684e-015
rhumerus -39.4571 -8.59571 -80.2995
rradius 43.4769
rwrist -9.71446
rhand -3.88852 -53.414
rfingers 7.12502
rthumb 21.861 -82.1991
lclavicle 8.54774e-015 -5.1684e-015
lhumerus -29.0083 -13.3221 80.8197
lradius 46.6433
lwrist -0.446886
lhand -21.3455 -13.821
lfingers 7.12502
lthumb 5.04074 16.0991
rfemur -48.6513 5.89996 8.79492
rtibia 22.7492
rfoot -18.6771 -6.39268
rtoes -15.2825
lfemur -49.0025 -7.93416 -20.2251
ltibia 73.209
lfoot -8.3118 0.271202
ltoes -29.5452
258
root 3.56059 17.1638 9.8235 -144.208 -4.65777 172.76
lowerback -17.6068 -4.35551 -2.01601
upperback 1.21496 -5.51602 0.834089
thorax 11.5207 -2.77006 0.543673
lowerneck -0.718285 -1.50752 -0.0214472
upperneck 17.1278 -1.02538 0.141749
head 5.26675 -0.101524 0.0354796
rclavicle 2.82274e-014 -9.93923e-016
rhumerus -39.2273 -9.03983 -80.3257
rradius 43.5016
rwrist -9.53576
rhand -3.95317 -53.5648
rfingers 7.12502
rthumb 21.7989 -82.3571
lclavicle 2.82274e-014 -9.93923e-016
lhumerus -28.8946 -13.2469 80.8472
lradius 45.8293
lwrist -0.683264
lhand -21.0124 -13.7027
lfingers 7.12502
lthumb 5.36236 16.2094
rfemur -48.3557 5.82957 9.11356
rtibia 22.5749
rfoot -18.7807 -6.10413
rtoes -15.0999
lfemur -49.8575 -8.19968 -20.447
ltibia 72.465
lfoot -8.60123 -0.0636687
ltoes -27.2924
259
root 3.55694 17.1368 9.77233 -144.235 -4.9396 172.902
lowerback -18.4709 -4.56481 -1.85525
upperback 1.10645 -5.84497 1.03932
thorax 11.9144 -2.91822 0.524806
lowerneck -0.106699 -1.4229 -0.749091
upperneck 17.3645 -0.851062 0.516895
head 5.24329 -0.0116586 0.286023
rclavicle 1.37161e-014 -2.06736e-014
rhumerus -39.5186 -8.40504 -80.1615
rradius 43.5643
rwrist -9.42548
rhand -4.07923 -53.8677
rfingers 7.12502
rthumb 21.6779 -82.6741
lclavicle 1.37161e-014 -2.06736e-014
lhumerus -29.855 -12.2197 81.1554
lradius 45.2924
lwrist -0.999989
lhand -20.4975 -13.2773
lfingers 7.12502
lthumb 5.85953 16.6217
rfemur -47.895 5.40686 9.75452
rtibia 22.3405
rfoot -19.078 -5.74343
rtoes -15.8257
lfemur -50.6313 -8.74998 -20.577
ltibia 71.5595
lfoot -8.84888 -0.330114
ltoes -28.3376
260
root 3.57939 17.1596 9.79217 -144.635 -4.61057 173.044
lowerback -17.5838 -4.28879 -2.0969
upperback 1.21043 -5.41665 0.893393
thorax 11.5128 -2.73073 0.683303
lowerneck -1.05659 -1.68878 -0.523853
upperneck 18.0614 -1.24499 0.742002
head 5.62386 -0.167009 0.298388
rclavicle -5.11871e-014 2.88238e-014
rhumerus -39.1762 -9.18528 -80.1655
rradius 43.4715
rwrist -9.36097
rhand -3.8117 -53.9259
rfingers 7.12502
rthumb 21.9348 -82.7024
lclavicle -5.11871e-014 2.88238e-014
lhumerus -29.6734 -12.2598 81.1008
lradius 44.5645
lwrist -1.02022
lhand -20.2565 -12.9111
lfingers 7.12502
lthumb 6.09222 16.9813
rfemur -48.0217 6.13243 9.60543
rtibia 22.9737
rfoot -19.3405 -6.08261
rtoes -15.287
lfemur -51.4481 -8.54562 -20.8566
ltibia 70.9141
lfoot -9.1398 -0.402301
ltoes -30.3275
261
root 3.58799 17.1591 9.77598 -144.96 -4.64532 173.155
lowerback -17.4114 -4.17432 -2.07585
upperback 1.37602 -5.25948 0.833526
thorax 11.5859 -2.65182 0.655379
lowerneck -1.98716 -1.98511 -0.405248
upperneck 18.9663 -1.61675 0.723169
head 6.06959 -0.321263 0.250175
rclavicle 3.25013e-014 1.23246e-014
rhumerus -38.8791 -9.59329 -80.1443
rradius 43.3584
rwrist -9.31243
rhand -3.5271 -53.8612
rfingers 7.12502
rthumb 22.208 -82.6054
lclavicle 3.25013e-014 1.23246e-014
lhumerus -29.6056 -11.8803 81.0755
lradius 43.8117
lwrist -1.29325
lhand -20.2005 -12.6883
lfingers 7.12502
lthumb 6.14627 17.2025
rfemur -47.6445 6.34688 9.80524
rtibia 23.0643
rfoot -19.4777 -6.02366
rtoes -14.0195
lfemur -51.9831 -8.81743 -21.0118
ltibia 69.8042
lfoot -9.36055 -0.792386
ltoes -28.1567
